<svg xmlns="http://www.w3.org/2000/svg" version="1.1" viewBox="9.2 9.2 81.59 81.59" fill="#fff">
  <path
    d="m70.078 51.969h4.5c1.0898 0 1.9688-0.87891 1.9688-1.9688s-0.87891-1.9688-1.9688-1.9688h-4.5c-1.0898 0-1.9688 0.87891-1.9688 1.9688s0.87891 1.9688 1.9688 1.9688z" />
  <path
    d="m88.828 48.031h-4.5c-1.0898 0-1.9688 0.87891-1.9688 1.9688s0.87891 1.9688 1.9688 1.9688h4.5c1.0898 0 1.9688-0.87891 1.9688-1.9688s-0.87891-1.9688-1.9688-1.9688z" />
  <path
    d="m23.461 50c0 1.0898 0.87891 1.9688 1.9688 1.9688h4.5c1.0898 0 1.9688-0.87891 1.9688-1.9688s-0.87891-1.9688-1.9688-1.9688h-4.5c-1.0898 0-1.9688 0.87891-1.9688 1.9688z" />
  <path
    d="m15.672 48.031h-4.5c-1.0898 0-1.9688 0.87891-1.9688 1.9688s0.87891 1.9688 1.9688 1.9688h4.5c1.0898 0 1.9688-0.87891 1.9688-1.9688s-0.87891-1.9688-1.9688-1.9688z" />
  <path
    d="m62.82 38.602c0.5 0 1.0117-0.19141 1.3906-0.57812l3.1797-3.1797c0.76953-0.76953 0.76953-2.0195 0-2.7891-0.76953-0.76953-2.0195-0.76953-2.7891 0l-3.1797 3.1797c-0.76953 0.76953-0.76953 2.0195 0 2.7891 0.37891 0.37891 0.89062 0.57812 1.3906 0.57812z" />
  <path
    d="m74.691 21.98-3.1797 3.1797c-0.76953 0.76953-0.76953 2.0195 0 2.7891 0.37891 0.37891 0.89062 0.57812 1.3906 0.57812s1.0117-0.19141 1.3906-0.57812l3.1797-3.1797c0.76953-0.76953 0.76953-2.0195 0-2.7891-0.76953-0.76953-2.0195-0.76953-2.7891 0z" />
  <path
    d="m34 68.52c0.5 0 1.0117-0.19141 1.3906-0.57812l3.1797-3.1797c0.76953-0.76953 0.76953-2.0195 0-2.7891-0.76953-0.76953-2.0195-0.76953-2.7891 0l-3.1797 3.1797c-0.76953 0.76953-0.76953 2.0195 0 2.7891 0.37891 0.37891 0.89063 0.57812 1.3906 0.57812z" />
  <path
    d="m25.309 78.02 3.1797-3.1797c0.76953-0.76953 0.76953-2.0195 0-2.7891s-2.0195-0.76953-2.7891 0l-3.1797 3.1797c-0.76953 0.76953-0.76953 2.0195 0 2.7891 0.37891 0.37891 0.89062 0.57812 1.3906 0.57812s1.0117-0.19141 1.3906-0.57812z" />
  <path
    d="m64.609 67.949c0.37891 0.37891 0.89062 0.57812 1.3906 0.57812s1.0117-0.19141 1.3906-0.57812c0.76953-0.76953 0.76953-2.0195 0-2.7891l-3.1797-3.1797c-0.76953-0.76953-2.0195-0.76953-2.7891 0s-0.76953 2.0195 0 2.7891l3.1797 3.1797z" />
  <path
    d="m74.289 72.051c-0.76953-0.76953-2.0195-0.76953-2.7891 0s-0.76953 2.0195 0 2.7891l3.1797 3.1797c0.37891 0.37891 0.89062 0.57812 1.3906 0.57812s1.0117-0.19141 1.3906-0.57812c0.76953-0.76953 0.76953-2.0195 0-2.7891l-3.1797-3.1797z" />
  <path
    d="m35.789 38.02c0.37891 0.37891 0.89063 0.57812 1.3906 0.57812s1.0117-0.19141 1.3906-0.57812c0.76953-0.76953 0.76953-2.0195 0-2.7891l-3.1797-3.1797c-0.76953-0.76953-2.0195-0.76953-2.7891 0-0.76953 0.76953-0.76953 2.0195 0 2.7891l3.1797 3.1797z" />
  <path
    d="m25.711 27.949c0.37891 0.37891 0.89062 0.57812 1.3906 0.57812s1.0117-0.19141 1.3906-0.57812c0.76953-0.76953 0.76953-2.0195 0-2.7891l-3.1797-3.1797c-0.76953-0.76953-2.0195-0.76953-2.7891 0-0.76953 0.76953-0.76953 2.0195 0 2.7891l3.1797 3.1797z" />
  <path
    d="m50 31.891c1.0898 0 1.9688-0.87891 1.9688-1.9688v-4.5c0-1.0898-0.87891-1.9688-1.9688-1.9688s-1.9688 0.87891-1.9688 1.9688v4.5c0 1.0898 0.87891 1.9688 1.9688 1.9688z" />
  <path
    d="m50 17.641c1.0898 0 1.9688-0.87891 1.9688-1.9688v-4.5c0-1.0898-0.87891-1.9688-1.9688-1.9688s-1.9688 0.87891-1.9688 1.9688v4.5c0 1.0898 0.87891 1.9688 1.9688 1.9688z" />
  <path
    d="m50 76.539c1.0898 0 1.9688-0.87891 1.9688-1.9688v-4.5c0-1.0898-0.87891-1.9688-1.9688-1.9688s-1.9688 0.87891-1.9688 1.9688v4.5c0 1.0898 0.87891 1.9688 1.9688 1.9688z" />
  <path
    d="m50 90.789c1.0898 0 1.9688-0.87891 1.9688-1.9688v-4.5c0-1.0898-0.87891-1.9688-1.9688-1.9688s-1.9688 0.87891-1.9688 1.9688v4.5c0 1.0898 0.87891 1.9688 1.9688 1.9688z" />
</svg>
